<svg id="Layer_1" data-name="Layer 1" xmlns="http://www.w3.org/2000/svg" xmlns:xlink="http://www.w3.org/1999/xlink" viewBox="0 0 875.6 268.2"><defs><style>.cls-1{mask:url(#mask);}.cls-2,.cls-3{fill:#fff;}.cls-3{font-size:40px;font-family:GothamPro, Gotham Pro;}.cls-4{letter-spacing:-0.04em;}.cls-5{letter-spacing:0em;}.cls-6{letter-spacing:-0.05em;}.cls-7{letter-spacing:-0.01em;}.cls-8{letter-spacing:0em;}.cls-9{letter-spacing:-0.04em;}.cls-10{filter:url(#luminosity-noclip);}</style><filter id="luminosity-noclip" x="266.9" y="271.43" width="859.73" height="189.87" filterUnits="userSpaceOnUse" color-interpolation-filters="sRGB"><feFlood flood-color="#fff" result="bg"/><feBlend in="SourceGraphic" in2="bg"/></filter><mask id="mask" x="0" y="38.81" width="859.73" height="189.87" maskUnits="userSpaceOnUse"><g class="cls-10"><g transform="translate(-266.9 -232.6)"><path d="M886,283a904.9,904.9,0,0,1-153,87c-175,77.8-336.2,81.8-428.7,84.1-29.2.7-37.3-.1-37.3-.1s250.1,29.3,500-30a1176,1176,0,0,0,288-110Z"/></g></g></mask></defs><title>logo-1</title><g class="cls-1"><path class="cls-2" d="M266.9,271.4h38V453.9h-38Z" transform="translate(-266.9 -232.6)"/><path class="cls-2" d="M318.9,387.2c0-38.5,31-69.8,72.7-69.8s72.3,30.8,72.3,69.8-31,69.7-72.8,69.7S318.9,426.2,318.9,387.2Zm107.5,0c0-19.8-14.3-37-35.3-37s-34.7,16.7-34.7,37,14.2,37,35.2,37S426.4,407.4,426.4,387.2Z" transform="translate(-266.9 -232.6)"/><path class="cls-2" d="M469.6,387.2c0-38.3,29.3-69.8,70.3-69.8,25.2,0,40.7,9.5,53.2,23.5l-22.2,22.5c-8.3-7.7-16.3-13.2-31.3-13.2-19,0-32.5,16.7-32.5,37s13.3,37,34,37c12.8,0,21.5-5.5,30.8-14.3l22.2,22.5c-13,14.3-28,24.5-54.7,24.5C499.1,456.9,469.6,425.9,469.6,387.2Z" transform="translate(-266.9 -232.6)"/><path class="cls-2" d="M595.6,414.9c0-29.2,22.3-42.7,54-42.7a94.3,94.3,0,0,1,32.8,5.5v-2.3c0-15.7-9.8-24.5-28.8-24.5-14.5,0-24.7,2.8-37,7.3l-9.5-29c14.8-6.5,29.3-10.8,52-10.8,20.8,0,35.8,5.5,45.3,15s14.5,24.8,14.5,42.8v77.7H682.1V439.4c-9.2,10.3-22,17-40.5,17C616.4,456.4,595.6,441.9,595.6,414.9Zm87.3-8.2v-6.8a59,59,0,0,0-24.3-5c-16.2,0-26.2,6.5-26.2,19,0,10.3,8.5,16.3,20.7,16.3C670.9,430.2,682.9,420.4,682.9,406.7Z" transform="translate(-266.9 -232.6)"/><path class="cls-2" d="M738.1,271.4h38V453.9h-38Z" transform="translate(-266.9 -232.6)"/><path class="cls-2" d="M795.1,413.9h40.5v40H795.1Z" transform="translate(-266.9 -232.6)"/><path class="cls-2" d="M844.9,414.9c0-29.2,22.2-42.7,54-42.7a93.7,93.7,0,0,1,32.7,5.5v-2.3c0-15.7-9.7-24.5-28.7-24.5-14.5,0-24.8,2.8-37,7.3l-9.5-29c14.7-6.5,29.2-10.8,52-10.8,20.7,0,35.7,5.5,45.2,15s14.5,24.8,14.5,42.8v77.7H931.4V439.4c-9.3,10.3-22,17-40.5,17C865.6,456.4,844.9,441.9,844.9,414.9Zm87.2-8.2v-6.8a58.9,58.9,0,0,0-24.2-5c-16.3,0-26.3,6.5-26.3,19,0,10.3,8.5,16.3,20.8,16.3C920.1,430.2,932.1,420.4,932.1,406.7Z" transform="translate(-266.9 -232.6)"/><path class="cls-2" d="M987.4,319.9h38v134h-38Z" transform="translate(-266.9 -232.6)"/><path class="cls-2" d="M1045.9,319.9h38v27c7.7-18.5,20.2-30.5,42.7-29.5v39.8h-2c-25.2,0-40.7,15.2-40.7,47.2v49.5h-38Z" transform="translate(-266.9 -232.6)"/></g><path class="cls-2" d="M1142.1,236.8c1.1,2.2,4,12.8-57,35.3l-4.7,10.3,7.5-.4s9.4-3.5,10.6-.7.2,4-7.3,7.9c0,0,2.3,2.6,1.4,4.8s-10,7-17.7,8.5c0,0-3-1.4-2.6-3.9,0,0,.7,4-9.2,7.8l-12.3-18.3s-35.4,15.8-52.3,20.2-26.4,5.3-26.4,5.3l.2,3.5-7.8,3.7-11.1-6.1-6.6.7v-2.1l-35.1-4.9,13.6-6.2,22.2.3-9-25.9,11.7-4.7L974.5,291l10.4.2,22.3-11.7-96.1-17.1,13.4-8.2,64.5,5.5s15.6-6.8,19-4.3,1.9,5.5,1.9,5.5l27.9,1.8s9-5.6,13.6-4.3,2.6,1.8,2.6,1.8,42.9-18.9,52.4-22.6,20.4-7,25.8-3.5C1132.2,234.1,1140.1,232.5,1142.1,236.8Z" transform="translate(-266.9 -232.6)"/><text class="cls-3" transform="translate(38.1 260.4)"><tspan class="cls-4">L</tspan><tspan class="cls-5" x="23.2" y="0">OCAL AIRLINE ROUTE </tspan><tspan class="cls-6" x="492" y="0">D</tspan><tspan class="cls-7" x="521.4" y="0">A</tspan><tspan class="cls-8" x="552.5" y="0">SHB</tspan><tspan class="cls-9" x="637.4" y="0">O</tspan><tspan x="669.7" y="0">ARD</tspan></text></svg>