<svg id="Layer_1" data-name="Layer 1" xmlns="http://www.w3.org/2000/svg" xmlns:xlink="http://www.w3.org/1999/xlink" viewBox="0 0 875.6 224.3"><defs><style>.cls-1{mask:url(#mask);}.cls-2{fill:#f5f5f5;}.cls-3{filter:url(#luminosity-noclip);}</style><filter id="luminosity-noclip" x="-38" y="68" width="978" height="202.52" filterUnits="userSpaceOnUse" color-interpolation-filters="sRGB"><feFlood flood-color="#fff" result="bg"/><feBlend in="SourceGraphic" in2="bg"/></filter><mask id="mask" x="-94.9" y="22.38" width="978" height="202.52" maskUnits="userSpaceOnUse"><g class="cls-3"><g transform="translate(-56.9 -45.6)"><path d="M728.9,68c-90.8,42.5-169,72.7-226.2,93.3,0,0-259.8,101-497.4,107.5-33.9.9-43.3-.2-43.3-.1s307.4,12.9,580.1-38.4C644.6,211,782,175,940,102Z"/></g></g></mask></defs><title>logo-2</title><g class="cls-1"><path class="cls-2" d="M56.9,84.4h38V266.9h-38Z" transform="translate(-56.9 -45.6)"/><path class="cls-2" d="M108.9,200.2c0-38.5,31-69.8,72.7-69.8s72.3,30.8,72.3,69.8-31,69.7-72.8,69.7S108.9,239.2,108.9,200.2Zm107.5,0c0-19.8-14.3-37-35.3-37s-34.7,16.7-34.7,37,14.2,37,35.2,37S216.4,220.4,216.4,200.2Z" transform="translate(-56.9 -45.6)"/><path class="cls-2" d="M259.6,200.2c0-38.3,29.3-69.8,70.3-69.8,25.2,0,40.7,9.5,53.2,23.5l-22.2,22.5c-8.3-7.7-16.3-13.2-31.3-13.2-19,0-32.5,16.7-32.5,37s13.3,37,34,37c12.8,0,21.5-5.5,30.8-14.3l22.2,22.5c-13,14.3-28,24.5-54.7,24.5C289.1,269.9,259.6,238.9,259.6,200.2Z" transform="translate(-56.9 -45.6)"/><path class="cls-2" d="M385.6,227.9c0-29.2,22.3-42.7,54-42.7a94.3,94.3,0,0,1,32.8,5.5v-2.3c0-15.7-9.8-24.5-28.8-24.5-14.5,0-24.7,2.8-37,7.3l-9.5-29c14.8-6.5,29.3-10.8,52-10.8,20.8,0,35.8,5.5,45.3,15s14.5,24.8,14.5,42.8v77.7H472.1V252.4c-9.2,10.3-22,17-40.5,17C406.4,269.4,385.6,254.9,385.6,227.9Zm87.3-8.2v-6.8a59,59,0,0,0-24.3-5c-16.2,0-26.2,6.5-26.2,19,0,10.3,8.5,16.3,20.7,16.3C460.9,243.2,472.9,233.4,472.9,219.7Z" transform="translate(-56.9 -45.6)"/><path class="cls-2" d="M528.1,84.4h38V266.9h-38Z" transform="translate(-56.9 -45.6)"/><path class="cls-2" d="M585.1,226.9h40.5v40H585.1Z" transform="translate(-56.9 -45.6)"/><path class="cls-2" d="M634.9,227.9c0-29.2,22.2-42.7,54-42.7a93.7,93.7,0,0,1,32.7,5.5v-2.3c0-15.7-9.7-24.5-28.7-24.5-14.5,0-24.8,2.8-37,7.3l-9.5-29c14.7-6.5,29.2-10.8,52-10.8,20.7,0,35.7,5.5,45.2,15s14.5,24.8,14.5,42.8v77.7H721.4V252.4c-9.3,10.3-22,17-40.5,17C655.6,269.4,634.9,254.9,634.9,227.9Zm87.2-8.2v-6.8a58.9,58.9,0,0,0-24.2-5c-16.3,0-26.3,6.5-26.3,19,0,10.3,8.5,16.3,20.8,16.3C710.1,243.2,722.1,233.4,722.1,219.7Z" transform="translate(-56.9 -45.6)"/><path class="cls-2" d="M777.4,132.9h38v134h-38Z" transform="translate(-56.9 -45.6)"/><path class="cls-2" d="M835.9,132.9h38v27c7.7-18.5,20.2-30.5,42.7-29.5v39.8h-2c-25.2,0-40.7,15.2-40.7,47.2v49.5h-38Z" transform="translate(-56.9 -45.6)"/></g><path class="cls-2" d="M932.1,49.8c1.1,2.2,4,12.8-57,35.3l-4.7,10.3,7.5-.4s9.4-3.5,10.6-.7.2,4-7.3,7.9c0,0,2.3,2.6,1.4,4.8s-10,7-17.7,8.5c0,0-3-1.4-2.6-3.9,0,0,.7,4-9.2,7.8l-12.3-18.3s-35.4,15.8-52.3,20.2-26.4,5.3-26.4,5.3l.2,3.5-7.8,3.7-11.1-6.1-6.6.7v-2.1l-35.1-4.9,13.6-6.2,22.2.3-9-25.9,11.7-4.7L764.5,104l10.4.2,22.3-11.7L701.1,75.4l13.4-8.2L779,72.7s15.6-6.8,19-4.3,1.9,5.5,1.9,5.5l27.9,1.8s9-5.6,13.6-4.3,2.6,1.8,2.6,1.8,42.9-18.9,52.4-22.6,20.4-7,25.8-3.5C922.2,47.1,930.1,45.5,932.1,49.8Z" transform="translate(-56.9 -45.6)"/></svg>